<svg xmlns="http://www.w3.org/2000/svg" viewBox="0 0 800 500" role="img" aria-label="Fondos en silla - end">
<defs><linearGradient id="bg" x1="0" y1="0" x2="1" y2="1"><stop stop-color="#07111f"/><stop offset="1" stop-color="#15243a"/></linearGradient><radialGradient id="light"><stop stop-color="#334155" stop-opacity=".7"/><stop offset="1" stop-color="#020617" stop-opacity="0"/></radialGradient></defs>
<rect width="800" height="500" fill="url(#bg)"/><circle cx="520" cy="180" r="260" fill="url(#light)"/><path d="M0 440 H800" stroke="#334155" stroke-width="3"/><path d="M80 440 L180 250 M720 440 L620 250" stroke="#1e293b" stroke-width="8"/>
<rect x="24" y="22" width="200" height="42" rx="18" fill="#c084fc" fill-opacity=".18" stroke="#c084fc"/><text x="42" y="50" fill="#c084fc" font-family="Arial" font-size="20" font-weight="bold">END</text>
<text x="28" y="476" fill="#e2e8f0" font-family="Arial" font-size="25" font-weight="bold">Fondos en silla</text><text x="610" y="476" fill="#94a3b8" font-family="Arial" font-size="17">Tríceps</text>
<rect x="150" y="330" width="190" height="25" rx="5" fill="#475569"/><rect x="170" y="355" width="18" height="90" fill="#334155"/><rect x="305" y="355" width="18" height="90" fill="#334155"/><line x1="325" y1="285" x2="292" y2="290" stroke="#c98d6b" stroke-width="24" stroke-linecap="round"/><line x1="292" y1="290" x2="260" y2="315" stroke="#c98d6b" stroke-width="20" stroke-linecap="round"/><line x1="385" y1="285" x2="350" y2="292" stroke="#c98d6b" stroke-width="24" stroke-linecap="round"/><line x1="350" y1="292" x2="315" y2="320" stroke="#c98d6b" stroke-width="20" stroke-linecap="round"/><line x1="366" y1="335" x2="425" y2="372" stroke="#7c3aed" stroke-width="30" stroke-linecap="round"/><line x1="425" y1="372" x2="485" y2="410" stroke="#c98d6b" stroke-width="24" stroke-linecap="round"/><line x1="434" y1="335" x2="504" y2="372" stroke="#7c3aed" stroke-width="30" stroke-linecap="round"/><line x1="504" y1="372" x2="575" y2="410" stroke="#c98d6b" stroke-width="24" stroke-linecap="round"/>
<path d="M 325 285 Q 355 267 385 285 L 434 335 Q 400 353 366 335 Z" fill="#7c3aed" stroke="#c084fc" stroke-width="3"/>
<ellipse cx="330" cy="245" rx="33" ry="42" fill="#c98d6b"/><path d="M 297 235 Q 330 190 363 235 Q 335 217 297 235" fill="#251711"/>
<circle cx="320" cy="245" r="2.5" fill="#111827"/><path d="M 322 263 Q 330 267 338 263" fill="none" stroke="#7c2d12" stroke-width="2"/>
<circle cx="260" cy="315" r="11" fill="#c98d6b"/><circle cx="315" cy="320" r="11" fill="#c98d6b"/>
</svg>