<svg xmlns="http://www.w3.org/2000/svg" viewBox="0 0 800 500" role="img" aria-label="Flexiones inclinadas - start">
<defs><linearGradient id="bg" x1="0" y1="0" x2="1" y2="1"><stop stop-color="#07111f"/><stop offset="1" stop-color="#15243a"/></linearGradient><radialGradient id="light"><stop stop-color="#334155" stop-opacity=".7"/><stop offset="1" stop-color="#020617" stop-opacity="0"/></radialGradient></defs>
<rect width="800" height="500" fill="url(#bg)"/><circle cx="520" cy="180" r="260" fill="url(#light)"/><path d="M0 440 H800" stroke="#334155" stroke-width="3"/><path d="M80 440 L180 250 M720 440 L620 250" stroke="#1e293b" stroke-width="8"/>
<rect x="24" y="22" width="200" height="42" rx="18" fill="#c084fc" fill-opacity=".18" stroke="#c084fc"/><text x="42" y="50" fill="#c084fc" font-family="Arial" font-size="20" font-weight="bold">START</text>
<text x="28" y="476" fill="#e2e8f0" font-family="Arial" font-size="25" font-weight="bold">Flexiones inclinadas</text><text x="610" y="476" fill="#94a3b8" font-family="Arial" font-size="17">Pecho</text>
<rect x="150" y="330" width="190" height="25" rx="5" fill="#475569"/><rect x="170" y="355" width="18" height="90" fill="#334155"/><rect x="305" y="355" width="18" height="90" fill="#334155"/><line x1="300" y1="210" x2="265" y2="245" stroke="#c98d6b" stroke-width="24" stroke-linecap="round"/><line x1="265" y1="245" x2="230" y2="300" stroke="#c98d6b" stroke-width="20" stroke-linecap="round"/><line x1="360" y1="210" x2="322" y2="247" stroke="#c98d6b" stroke-width="24" stroke-linecap="round"/><line x1="322" y1="247" x2="285" y2="305" stroke="#c98d6b" stroke-width="20" stroke-linecap="round"/><line x1="236" y1="285" x2="350" y2="322" stroke="#7c3aed" stroke-width="30" stroke-linecap="round"/><line x1="350" y1="322" x2="465" y2="360" stroke="#c98d6b" stroke-width="24" stroke-linecap="round"/><line x1="304" y1="285" x2="429" y2="322" stroke="#7c3aed" stroke-width="30" stroke-linecap="round"/><line x1="429" y1="322" x2="555" y2="360" stroke="#c98d6b" stroke-width="24" stroke-linecap="round"/>
<path d="M 300 210 Q 330 192 360 210 L 304 285 Q 270 303 236 285 Z" fill="#7c3aed" stroke="#c084fc" stroke-width="3"/>
<ellipse cx="360" cy="150" rx="33" ry="42" fill="#c98d6b"/><path d="M 327 140 Q 360 95 393 140 Q 365 122 327 140" fill="#251711"/>
<circle cx="350" cy="150" r="2.5" fill="#111827"/><path d="M 352 168 Q 360 172 368 168" fill="none" stroke="#7c2d12" stroke-width="2"/>
<circle cx="230" cy="300" r="11" fill="#c98d6b"/><circle cx="285" cy="305" r="11" fill="#c98d6b"/>
</svg>