<svg xmlns="http://www.w3.org/2000/svg" viewBox="0 0 800 500" role="img" aria-label="Flexiones de pecho - end">
<defs><linearGradient id="bg" x1="0" y1="0" x2="1" y2="1"><stop stop-color="#07111f"/><stop offset="1" stop-color="#15243a"/></linearGradient><radialGradient id="light"><stop stop-color="#334155" stop-opacity=".7"/><stop offset="1" stop-color="#020617" stop-opacity="0"/></radialGradient></defs>
<rect width="800" height="500" fill="url(#bg)"/><circle cx="520" cy="180" r="260" fill="url(#light)"/><path d="M0 440 H800" stroke="#334155" stroke-width="3"/><path d="M80 440 L180 250 M720 440 L620 250" stroke="#1e293b" stroke-width="8"/>
<rect x="24" y="22" width="200" height="42" rx="18" fill="#c084fc" fill-opacity=".18" stroke="#c084fc"/><text x="42" y="50" fill="#c084fc" font-family="Arial" font-size="20" font-weight="bold">END</text>
<text x="28" y="476" fill="#e2e8f0" font-family="Arial" font-size="25" font-weight="bold">Flexiones de pecho</text><text x="610" y="476" fill="#94a3b8" font-family="Arial" font-size="17">Pecho</text>
<line x1="320" y1="285" x2="270" y2="302" stroke="#c98d6b" stroke-width="24" stroke-linecap="round"/><line x1="270" y1="302" x2="220" y2="340" stroke="#c98d6b" stroke-width="20" stroke-linecap="round"/><line x1="380" y1="285" x2="327" y2="305" stroke="#c98d6b" stroke-width="24" stroke-linecap="round"/><line x1="327" y1="305" x2="275" y2="345" stroke="#c98d6b" stroke-width="20" stroke-linecap="round"/><line x1="251" y1="330" x2="375" y2="347" stroke="#7c3aed" stroke-width="30" stroke-linecap="round"/><line x1="375" y1="347" x2="500" y2="365" stroke="#c98d6b" stroke-width="24" stroke-linecap="round"/><line x1="319" y1="330" x2="454" y2="347" stroke="#7c3aed" stroke-width="30" stroke-linecap="round"/><line x1="454" y1="347" x2="590" y2="365" stroke="#c98d6b" stroke-width="24" stroke-linecap="round"/>
<path d="M 320 285 Q 350 267 380 285 L 319 330 Q 285 348 251 330 Z" fill="#7c3aed" stroke="#c084fc" stroke-width="3"/>
<ellipse cx="385" cy="245" rx="33" ry="42" fill="#c98d6b"/><path d="M 352 235 Q 385 190 418 235 Q 390 217 352 235" fill="#251711"/>
<circle cx="375" cy="245" r="2.5" fill="#111827"/><path d="M 377 263 Q 385 267 393 263" fill="none" stroke="#7c2d12" stroke-width="2"/>
<circle cx="220" cy="340" r="11" fill="#c98d6b"/><circle cx="275" cy="345" r="11" fill="#c98d6b"/>
</svg>