<svg xmlns="http://www.w3.org/2000/svg" viewBox="0 0 800 500" role="img" aria-label="Superman - end">
<defs><linearGradient id="bg" x1="0" y1="0" x2="1" y2="1"><stop stop-color="#07111f"/><stop offset="1" stop-color="#15243a"/></linearGradient><radialGradient id="light"><stop stop-color="#334155" stop-opacity=".7"/><stop offset="1" stop-color="#020617" stop-opacity="0"/></radialGradient></defs>
<rect width="800" height="500" fill="url(#bg)"/><circle cx="520" cy="180" r="260" fill="url(#light)"/><path d="M0 440 H800" stroke="#334155" stroke-width="3"/><path d="M80 440 L180 250 M720 440 L620 250" stroke="#1e293b" stroke-width="8"/>
<rect x="24" y="22" width="200" height="42" rx="18" fill="#c084fc" fill-opacity=".18" stroke="#c084fc"/><text x="42" y="50" fill="#c084fc" font-family="Arial" font-size="20" font-weight="bold">END</text>
<text x="28" y="476" fill="#e2e8f0" font-family="Arial" font-size="25" font-weight="bold">Superman</text><text x="610" y="476" fill="#94a3b8" font-family="Arial" font-size="17">Espalda</text>
<line x1="325" y1="300" x2="257" y2="255" stroke="#c98d6b" stroke-width="24" stroke-linecap="round"/><line x1="257" y1="255" x2="190" y2="230" stroke="#c98d6b" stroke-width="20" stroke-linecap="round"/><line x1="385" y1="300" x2="397" y2="305" stroke="#c98d6b" stroke-width="24" stroke-linecap="round"/><line x1="397" y1="305" x2="410" y2="330" stroke="#c98d6b" stroke-width="20" stroke-linecap="round"/><line x1="401" y1="325" x2="478" y2="327" stroke="#7c3aed" stroke-width="30" stroke-linecap="round"/><line x1="478" y1="327" x2="555" y2="330" stroke="#c98d6b" stroke-width="24" stroke-linecap="round"/><line x1="469" y1="325" x2="557" y2="327" stroke="#7c3aed" stroke-width="30" stroke-linecap="round"/><line x1="557" y1="327" x2="645" y2="330" stroke="#c98d6b" stroke-width="24" stroke-linecap="round"/>
<path d="M 325 300 Q 355 282 385 300 L 469 325 Q 435 343 401 325 Z" fill="#7c3aed" stroke="#c084fc" stroke-width="3"/>
<ellipse cx="285" cy="270" rx="33" ry="42" fill="#c98d6b"/><path d="M 252 260 Q 285 215 318 260 Q 290 242 252 260" fill="#251711"/>
<circle cx="275" cy="270" r="2.5" fill="#111827"/><path d="M 277 288 Q 285 292 293 288" fill="none" stroke="#7c2d12" stroke-width="2"/>
<circle cx="190" cy="230" r="11" fill="#c98d6b"/><circle cx="410" cy="330" r="11" fill="#c98d6b"/>
</svg>