<svg xmlns="http://www.w3.org/2000/svg" viewBox="0 0 800 500" role="img" aria-label="Sentadilla en pared - start">
<defs><linearGradient id="bg" x1="0" y1="0" x2="1" y2="1"><stop stop-color="#07111f"/><stop offset="1" stop-color="#15243a"/></linearGradient><radialGradient id="light"><stop stop-color="#334155" stop-opacity=".7"/><stop offset="1" stop-color="#020617" stop-opacity="0"/></radialGradient></defs>
<rect width="800" height="500" fill="url(#bg)"/><circle cx="520" cy="180" r="260" fill="url(#light)"/><path d="M0 440 H800" stroke="#334155" stroke-width="3"/><path d="M80 440 L180 250 M720 440 L620 250" stroke="#1e293b" stroke-width="8"/>
<rect x="24" y="22" width="200" height="42" rx="18" fill="#c084fc" fill-opacity=".18" stroke="#c084fc"/><text x="42" y="50" fill="#c084fc" font-family="Arial" font-size="20" font-weight="bold">START</text>
<text x="28" y="476" fill="#e2e8f0" font-family="Arial" font-size="25" font-weight="bold">Sentadilla en pared</text><text x="610" y="476" fill="#94a3b8" font-family="Arial" font-size="17">Piernas</text>
<line x1="310" y1="220" x2="300" y2="245" stroke="#c98d6b" stroke-width="24" stroke-linecap="round"/><line x1="300" y1="245" x2="290" y2="290" stroke="#c98d6b" stroke-width="20" stroke-linecap="round"/><line x1="370" y1="220" x2="380" y2="245" stroke="#c98d6b" stroke-width="24" stroke-linecap="round"/><line x1="380" y1="245" x2="390" y2="290" stroke="#c98d6b" stroke-width="20" stroke-linecap="round"/><line x1="341" y1="300" x2="398" y2="352" stroke="#7c3aed" stroke-width="30" stroke-linecap="round"/><line x1="398" y1="352" x2="455" y2="405" stroke="#c98d6b" stroke-width="24" stroke-linecap="round"/><line x1="409" y1="300" x2="477" y2="352" stroke="#7c3aed" stroke-width="30" stroke-linecap="round"/><line x1="477" y1="352" x2="545" y2="405" stroke="#c98d6b" stroke-width="24" stroke-linecap="round"/>
<path d="M 310 220 Q 340 202 370 220 L 409 300 Q 375 318 341 300 Z" fill="#7c3aed" stroke="#c084fc" stroke-width="3"/>
<ellipse cx="320" cy="160" rx="33" ry="42" fill="#c98d6b"/><path d="M 287 150 Q 320 105 353 150 Q 325 132 287 150" fill="#251711"/>
<circle cx="310" cy="160" r="2.5" fill="#111827"/><path d="M 312 178 Q 320 182 328 178" fill="none" stroke="#7c2d12" stroke-width="2"/>
<circle cx="290" cy="290" r="11" fill="#c98d6b"/><circle cx="390" cy="290" r="11" fill="#c98d6b"/>
</svg>