<svg xmlns="http://www.w3.org/2000/svg" viewBox="0 0 800 500" role="img" aria-label="Puente de glúteos - start">
<defs><linearGradient id="bg" x1="0" y1="0" x2="1" y2="1"><stop stop-color="#07111f"/><stop offset="1" stop-color="#15243a"/></linearGradient><radialGradient id="light"><stop stop-color="#334155" stop-opacity=".7"/><stop offset="1" stop-color="#020617" stop-opacity="0"/></radialGradient></defs>
<rect width="800" height="500" fill="url(#bg)"/><circle cx="520" cy="180" r="260" fill="url(#light)"/><path d="M0 440 H800" stroke="#334155" stroke-width="3"/><path d="M80 440 L180 250 M720 440 L620 250" stroke="#1e293b" stroke-width="8"/>
<rect x="24" y="22" width="200" height="42" rx="18" fill="#22d3ee" fill-opacity=".18" stroke="#22d3ee"/><text x="42" y="50" fill="#22d3ee" font-family="Arial" font-size="20" font-weight="bold">START</text>
<text x="28" y="476" fill="#e2e8f0" font-family="Arial" font-size="25" font-weight="bold">Puente de glúteos</text><text x="610" y="476" fill="#94a3b8" font-family="Arial" font-size="17">Glúteos</text>
<line x1="314" y1="300" x2="287" y2="332" stroke="#b87855" stroke-width="24" stroke-linecap="round"/><line x1="287" y1="332" x2="260" y2="385" stroke="#b87855" stroke-width="20" stroke-linecap="round"/><line x1="386" y1="300" x2="350" y2="335" stroke="#b87855" stroke-width="24" stroke-linecap="round"/><line x1="350" y1="335" x2="315" y2="390" stroke="#b87855" stroke-width="20" stroke-linecap="round"/><line x1="403" y1="340" x2="449" y2="365" stroke="#111827" stroke-width="30" stroke-linecap="round"/><line x1="449" y1="365" x2="495" y2="390" stroke="#b87855" stroke-width="24" stroke-linecap="round"/><line x1="457" y1="340" x2="521" y2="365" stroke="#111827" stroke-width="30" stroke-linecap="round"/><line x1="521" y1="365" x2="585" y2="390" stroke="#b87855" stroke-width="24" stroke-linecap="round"/>
<path d="M 314 300 Q 350 282 386 300 L 457 340 Q 430 358 403 340 Z" fill="#111827" stroke="#22d3ee" stroke-width="3"/>
<ellipse cx="300" cy="280" rx="33" ry="42" fill="#b87855"/><path d="M 267 270 Q 300 225 333 270 Q 305 252 267 270" fill="#251711"/>
<circle cx="290" cy="280" r="2.5" fill="#111827"/><path d="M 292 298 Q 300 302 308 298" fill="none" stroke="#7c2d12" stroke-width="2"/>
<circle cx="260" cy="385" r="11" fill="#b87855"/><circle cx="315" cy="390" r="11" fill="#b87855"/>
</svg>