<svg xmlns="http://www.w3.org/2000/svg" viewBox="0 0 800 500" role="img" aria-label="Flexiones con rodillas - end">
<defs><linearGradient id="bg" x1="0" y1="0" x2="1" y2="1"><stop stop-color="#07111f"/><stop offset="1" stop-color="#15243a"/></linearGradient><radialGradient id="light"><stop stop-color="#334155" stop-opacity=".7"/><stop offset="1" stop-color="#020617" stop-opacity="0"/></radialGradient></defs>
<rect width="800" height="500" fill="url(#bg)"/><circle cx="520" cy="180" r="260" fill="url(#light)"/><path d="M0 440 H800" stroke="#334155" stroke-width="3"/><path d="M80 440 L180 250 M720 440 L620 250" stroke="#1e293b" stroke-width="8"/>
<rect x="24" y="22" width="200" height="42" rx="18" fill="#22d3ee" fill-opacity=".18" stroke="#22d3ee"/><text x="42" y="50" fill="#22d3ee" font-family="Arial" font-size="20" font-weight="bold">END</text>
<text x="28" y="476" fill="#e2e8f0" font-family="Arial" font-size="25" font-weight="bold">Flexiones con rodillas</text><text x="610" y="476" fill="#94a3b8" font-family="Arial" font-size="17">Pecho</text>
<line x1="294" y1="270" x2="267" y2="290" stroke="#b87855" stroke-width="24" stroke-linecap="round"/><line x1="267" y1="290" x2="240" y2="330" stroke="#b87855" stroke-width="20" stroke-linecap="round"/><line x1="366" y1="270" x2="330" y2="292" stroke="#b87855" stroke-width="24" stroke-linecap="round"/><line x1="330" y1="292" x2="295" y2="335" stroke="#b87855" stroke-width="20" stroke-linecap="round"/><line x1="268" y1="335" x2="331" y2="360" stroke="#111827" stroke-width="30" stroke-linecap="round"/><line x1="331" y1="360" x2="395" y2="385" stroke="#b87855" stroke-width="24" stroke-linecap="round"/><line x1="322" y1="335" x2="403" y2="360" stroke="#111827" stroke-width="30" stroke-linecap="round"/><line x1="403" y1="360" x2="485" y2="385" stroke="#b87855" stroke-width="24" stroke-linecap="round"/>
<path d="M 294 270 Q 330 252 366 270 L 322 335 Q 295 353 268 335 Z" fill="#111827" stroke="#22d3ee" stroke-width="3"/>
<ellipse cx="350" cy="220" rx="33" ry="42" fill="#b87855"/><path d="M 317 210 Q 350 165 383 210 Q 355 192 317 210" fill="#251711"/>
<circle cx="340" cy="220" r="2.5" fill="#111827"/><path d="M 342 238 Q 350 242 358 238" fill="none" stroke="#7c2d12" stroke-width="2"/>
<circle cx="240" cy="330" r="11" fill="#b87855"/><circle cx="295" cy="335" r="11" fill="#b87855"/>
</svg>