<svg xmlns="http://www.w3.org/2000/svg" viewBox="0 0 800 500" role="img" aria-label="Flexiones de pecho - start">
<defs><linearGradient id="bg" x1="0" y1="0" x2="1" y2="1"><stop stop-color="#07111f"/><stop offset="1" stop-color="#15243a"/></linearGradient><radialGradient id="light"><stop stop-color="#334155" stop-opacity=".7"/><stop offset="1" stop-color="#020617" stop-opacity="0"/></radialGradient></defs>
<rect width="800" height="500" fill="url(#bg)"/><circle cx="520" cy="180" r="260" fill="url(#light)"/><path d="M0 440 H800" stroke="#334155" stroke-width="3"/><path d="M80 440 L180 250 M720 440 L620 250" stroke="#1e293b" stroke-width="8"/>
<rect x="24" y="22" width="200" height="42" rx="18" fill="#22d3ee" fill-opacity=".18" stroke="#22d3ee"/><text x="42" y="50" fill="#22d3ee" font-family="Arial" font-size="20" font-weight="bold">START</text>
<text x="28" y="476" fill="#e2e8f0" font-family="Arial" font-size="25" font-weight="bold">Flexiones de pecho</text><text x="610" y="476" fill="#94a3b8" font-family="Arial" font-size="17">Pecho</text>
<line x1="309" y1="220" x2="264" y2="270" stroke="#b87855" stroke-width="24" stroke-linecap="round"/><line x1="264" y1="270" x2="220" y2="340" stroke="#b87855" stroke-width="20" stroke-linecap="round"/><line x1="381" y1="220" x2="328" y2="272" stroke="#b87855" stroke-width="24" stroke-linecap="round"/><line x1="328" y1="272" x2="275" y2="345" stroke="#b87855" stroke-width="20" stroke-linecap="round"/><line x1="258" y1="300" x2="379" y2="332" stroke="#111827" stroke-width="30" stroke-linecap="round"/><line x1="379" y1="332" x2="500" y2="365" stroke="#b87855" stroke-width="24" stroke-linecap="round"/><line x1="312" y1="300" x2="451" y2="332" stroke="#111827" stroke-width="30" stroke-linecap="round"/><line x1="451" y1="332" x2="590" y2="365" stroke="#b87855" stroke-width="24" stroke-linecap="round"/>
<path d="M 309 220 Q 345 202 381 220 L 312 300 Q 285 318 258 300 Z" fill="#111827" stroke="#22d3ee" stroke-width="3"/>
<ellipse cx="370" cy="160" rx="33" ry="42" fill="#b87855"/><path d="M 337 150 Q 370 105 403 150 Q 375 132 337 150" fill="#251711"/>
<circle cx="360" cy="160" r="2.5" fill="#111827"/><path d="M 362 178 Q 370 182 378 178" fill="none" stroke="#7c2d12" stroke-width="2"/>
<circle cx="220" cy="340" r="11" fill="#b87855"/><circle cx="275" cy="345" r="11" fill="#b87855"/>
</svg>